# xmcd
#
# Track frame offsets: 
#        150
#        15812
#        31586
#        53601
#        69659
#        87259
#        109711
#        127476
#        149408
#        164502
#        179760
#        202887
#        220871
#        243513
#        258493
#        279400
#        306000
#        326251
#        343853
#
# Disc length: 4802 seconds
#
# Revision: 0
# Processed by: cddbd v1.5.1PL0 Copyright (c) Steve Scherf et al.
# Submitted via: ExactAudioCopy v0.95a3
#
DISCID=1412c013
DTITLE=OMAR and The HOWLERS - The Very Best of...CD-2  80'02''
DYEAR=2005
DGENRE=Rockjin' Blues
TTITLE0=Life is Just a Circle
TTITLE1=Bad Seed
TTITLE2=White Crosses
TTITLE3=Enough is Enough
TTITLE4=Tears Like Rain
TTITLE5=East Side Blues
TTITLE6=Radio Man
TTITLE7=Low Down Dirty Blues
TTITLE8=World of Trouble
TTITLE9=Steady Rock
TTITLE10=One Room Country Shack
TTITLE11=Snake Rhythm Rock
TTITLE12=Snake Oil Doctor
TTITLE13=You Keep Watchin' Me
TTITLE14=Monkey Land
TTITLE15=Pushin' Fire
TTITLE16=Movin'
TTITLE17=We Gotta Get Out of This Place
TTITLE18=Ton of Blues
EXTD=
EXTT0=
EXTT1=
EXTT2=
EXTT3=
EXTT4=
EXTT5=
EXTT6=
EXTT7=
EXTT8=
EXTT9=
EXTT10=
EXTT11=
EXTT12=
EXTT13=
EXTT14=
EXTT15=
EXTT16=
EXTT17=
EXTT18=
PLAYORDER=
